<svg width="33" height="23" viewBox="0 0 33 23" fill="none" xmlns="http://www.w3.org/2000/svg">
<path d="M32.9999 7.89659H0V1.25864C1.70905e-05 1.10774 0.0599697 0.963027 0.166673 0.856324C0.273375 0.749621 0.418091 0.689669 0.568991 0.689651H32.431C32.5819 0.689669 32.7266 0.749621 32.8333 0.856324C32.94 0.963027 33 1.10774 33 1.25864L32.9999 7.89659Z" fill="#FF4B55"/>
<path d="M32.4309 22.3103H0.568991C0.41809 22.3103 0.273375 22.2504 0.166672 22.1437C0.0599697 22.037 1.70905e-05 21.8923 0 21.7414L0 15.1035H32.9999V21.7414C32.9999 21.8923 32.94 22.037 32.8333 22.1437C32.7266 22.2504 32.5818 22.3103 32.4309 22.3103Z" fill="#464655"/>
<path d="M0 7.89647H32.9999V15.103H0V7.89647Z" fill="#F5F5F5"/>
<path d="M18.3166 10.3766C18.3166 10.0945 18.0402 9.89521 17.7726 9.98448L17.2696 10.1521L17.1475 9.41452C17.1127 9.20207 17.0034 9.00895 16.8392 8.86981C16.6749 8.73067 16.4664 8.6546 16.2512 8.65526H15.7807L15.2887 9.26086H15.9403L15.7579 10.1614L15.2273 9.98454C14.9596 9.89527 14.6832 10.0946 14.6832 10.3767V13.4366L15.4156 12.7042L15.0705 13.7394H14.6833V14.345H18.3167V13.7394H17.9295L17.5844 12.7042L18.3168 13.4366V10.3766H18.3166ZM16.1972 13.7393H15.7091L16.0447 12.8428L16.1972 13.0375V13.7393ZM16.8027 13.7393V13.0375L16.9552 12.8428L17.2909 13.7393H16.8027ZM16.5 12.6417C16.5 12.6417 15.5632 12.0077 15.6011 10.825C15.6011 10.825 16.1783 10.7304 16.5 10.2194C16.8216 10.7303 17.3989 10.825 17.3989 10.825C17.4367 12.0078 16.5 12.6417 16.5 12.6417Z" fill="#F0C727"/>
</svg>
