<svg width="24" height="24" viewBox="0 0 24 24" fill="none" xmlns="http://www.w3.org/2000/svg">
<path fill-rule="evenodd" clip-rule="evenodd" d="M12 0C5.38125 0 0 5.38125 0 12C0 18.6187 5.38125 24 12 24C18.6187 24 24 18.6187 24 12C24 5.38125 18.6187 0 12 0Z" fill="#9A3324"/>
<path fill-rule="evenodd" clip-rule="evenodd" d="M17.1562 12.8672C17.1562 15.7125 14.8406 18.0234 12 18.0234C9.15469 18.0234 6.84375 15.7078 6.84375 12.8672C6.84375 11.1141 7.72031 9.49688 9.19219 8.54531C9.53906 8.32031 10.0031 8.41875 10.2281 8.76562C10.4531 9.1125 10.3547 9.57656 10.0078 9.80156C8.9625 10.4766 8.34375 11.625 8.34375 12.8672C8.34375 14.8828 9.98438 16.5234 12 16.5234C14.0156 16.5234 15.6562 14.8828 15.6562 12.8672C15.6562 11.625 15.0328 10.4766 13.9922 9.80156C13.6453 9.57656 13.5469 9.1125 13.7719 8.76562C13.9969 8.41875 14.4609 8.32031 14.8078 8.54531C16.2797 9.49688 17.1562 11.1141 17.1562 12.8672ZM11.25 10.1906V6.72656C11.25 6.31406 11.5875 5.97656 12 5.97656C12.4125 5.97656 12.75 6.31406 12.75 6.72656V10.1906C12.75 10.6031 12.4125 10.9406 12 10.9406C11.5875 10.9406 11.25 10.6031 11.25 10.1906Z" fill="white"/>
</svg>
