<svg width="46" height="58" viewBox="0 0 46 58" fill="none" xmlns="http://www.w3.org/2000/svg">
<path d="M12.3687 24.6164C12.1 24.6164 11.8649 24.482 11.7641 24.2469L0.477802 1.3048C0.276261 0.868131 0.578572 0.330688 1.08242 0.330688H15.6269C15.8957 0.330688 16.1308 0.498639 16.2316 0.73377L23.6214 16.2188C23.7893 16.5883 23.5878 17.025 23.1847 17.1593L19.8929 23.8438L12.9733 24.1797C12.8726 24.4484 12.6374 24.6164 12.3687 24.6164Z" fill="#F6B318" fill-opacity="0.2"/>
<path d="M2.52678 5.43638L1.85498 4.09277H17.8439L18.4821 5.43638H2.52678Z" fill="#757575"/>
<path d="M33.6313 24.65C33.2954 24.65 32.9931 24.3476 32.9595 24.0117L21.5388 21.0558C21.0686 21.6604 20.0945 21.0558 20.4304 20.3504L29.7684 0.76737C29.8692 0.532239 30.1043 0.364288 30.373 0.364288H44.9176C45.3878 0.364288 45.7237 0.90173 45.4886 1.3384L34.2359 24.2805C34.1351 24.5156 33.9 24.65 33.6313 24.65Z" fill="#F6B318" fill-opacity="0.2"/>
<path d="M27.5179 5.43638L28.1561 4.09277H44.145L43.4732 5.43638H27.5179Z" fill="#757575"/>
<path d="M22.9832 57.669C12.5366 57.669 4.03833 49.1707 4.03833 38.7578C4.03833 28.3113 12.5366 19.813 22.9832 19.813C33.3961 19.813 41.8944 28.3113 41.8944 38.7578C41.8944 49.1707 33.3961 57.669 22.9832 57.669Z" fill="#D9D9D9"/>
<path d="M22.5129 19.8466H23.4198V24.3812C23.4198 24.9858 22.5129 24.9858 22.5129 24.3812V19.8466ZM36.0161 25.053C36.2513 25.2546 36.4528 25.4897 36.6543 25.6912L33.4297 28.9159C33.0266 29.319 32.3884 28.7144 32.7915 28.2777L36.0161 25.053ZM41.8944 38.3211V39.1945H37.3261C36.7551 39.1945 36.7551 38.3211 37.3261 38.3211H41.8944ZM36.6543 51.7908C36.4528 52.0259 36.2513 52.2274 36.0161 52.429L32.8251 49.2043C32.3884 48.8012 33.0266 48.163 33.4297 48.5997L36.6543 51.7908ZM22.9832 57.669H22.5129V53.1008C22.5129 52.5298 23.4198 52.5298 23.4198 53.1008V57.669H22.9832ZM9.9166 52.429C9.71506 52.2274 9.47993 52.0259 9.27839 51.7908L12.503 48.5997C12.9061 48.1966 13.5443 48.8012 13.1413 49.2043L9.9166 52.429ZM4.03833 39.1945V38.3211H8.60659C9.21121 38.3211 9.21121 39.1945 8.60659 39.1945H4.03833ZM9.27839 25.6912L9.9166 25.053L13.1413 28.2777C13.5443 28.7144 12.9061 29.319 12.503 28.9159L9.27839 25.6912Z" fill="#F5F4F4"/>
<path d="M22.9832 53.5375C14.8208 53.5375 8.16992 46.9202 8.16992 38.7578C8.16992 30.5954 14.8208 23.9445 22.9832 23.9445C31.1456 23.9445 37.7628 30.5954 37.7628 38.7578C37.7628 46.9202 31.1456 53.5375 22.9832 53.5375Z" fill="#FBFBFB"/>
<path d="M28.6599 47.9279C28.3912 47.9279 23.6214 45.2407 22.9832 44.8712L17.508 47.8943C17.1721 48.0623 16.769 47.7935 16.8362 47.424L18.0118 41.2771L13.4772 37.0111C13.2084 36.7424 13.3428 36.3057 13.7123 36.2385L19.9265 35.466L22.5801 29.8228C22.7144 29.4869 23.2183 29.4869 23.3862 29.8228L26.0399 35.466L32.2204 36.2385C32.5899 36.3057 32.7243 36.7424 32.4892 37.0111L27.9209 41.2771L29.0966 47.424C29.1301 47.6928 28.9286 47.9279 28.6599 47.9279Z" fill="#F6B318"/>
</svg>
